Coordinates
version=1
nRows=23
nColumns=33
inDegrees=yes

Units are S.I. units (second, meters, Newtons, ...)
Angles are in degrees.

endheader
time	ground_thorax_rot_x	ground_thorax_rot_y	ground_thorax_rot_z	ground_thorax_tx	ground_thorax_ty	ground_thorax_tz	clav_prot_r	clav_elev_r	scapula_abduction_r	scapula_elevation_r	scapula_upward_rot_r	scapula_winging_r	shoulder_elv_r	plane_of_elev_r	axial_rot_r	elbow_flexion_r	pro_sup_r	wrist_flex_r	wrist_dev_r	clav_prot_l	clav_elev_l	scapula_abduction_l	scapula_elevation_l	scapula_upward_rot_l	scapula_winging_l	shoulder_elv_l	plane_of_elev_l	axial_rot_l	elbow_flexion_l	pro_sup_l	wrist_flex_l	wrist_dev_l	
2.1200	19.398430	34.632983	19.460249	-0.010118	1.018357	-0.053573	-12.836128	37.750615	-12.476223	29.065105	45.000000	-6.844284	6.714151	-90.000000	38.524199	77.558465	-12.687343	32.521651	-16.588752	16.985201	-7.452613	-45.000000	2.952581	12.204805	19.980970	12.603829	-60.743963	-31.858272	66.420913	14.768915	9.853631	-21.270660	
2.1300	19.423319	34.678219	19.451713	-0.010091	1.018320	-0.053582	-12.832763	37.739508	-12.444470	29.054246	45.000000	-6.849481	6.728532	-90.000000	38.509826	77.546797	-12.693665	32.511128	-16.588200	16.980541	-7.468292	-45.000000	2.969937	12.223108	19.971278	12.617990	-60.740562	-31.893540	66.425714	14.761689	9.848172	-21.248512	
2.1400	19.456162	34.728111	19.428166	-0.010090	1.018304	-0.053611	-12.829382	37.724175	-12.404188	29.039093	45.000000	-6.857056	6.744840	-90.000000	38.493531	77.525522	-12.704434	32.492196	-16.585259	16.972189	-7.502317	-45.000000	3.005781	12.256630	19.951102	12.642473	-60.730552	-31.960684	66.432714	14.748594	9.837942	-21.208414	
2.1500	19.493088	34.783095	19.392418	-0.010102	1.018309	-0.053665	-12.825827	37.705147	-12.355840	29.020302	45.000000	-6.867285	6.763496	-90.000000	38.474894	77.495367	-12.720191	32.465298	-16.579658	16.960570	-7.552978	-45.000000	3.058273	12.303624	19.921991	12.677260	-60.713307	-32.056032	66.443969	14.728958	9.823524	-21.151841	
2.1600	19.530252	34.844263	19.348266	-0.010134	1.018327	-0.053745	-12.822801	37.682128	-12.300713	28.997457	45.000000	-6.880233	6.784866	-90.000000	38.453548	77.458592	-12.741571	32.430839	-16.570789	16.945959	-7.618493	-45.000000	3.125680	12.362782	19.884675	12.723614	-60.688021	-32.175989	66.461535	14.701516	9.805181	-21.079035	
2.1700	19.558222	34.910219	19.306820	-0.010163	1.018343	-0.053834	-12.822706	37.655465	-12.246523	28.970777	45.000000	-6.895587	6.808056	-90.000000	38.430388	77.422232	-12.769296	32.391707	-16.557358	16.931085	-7.688137	-45.000000	3.196769	12.423514	19.845163	12.781433	-60.657670	-32.302702	66.488479	14.664727	9.785956	-20.995366	
2.1800	19.574765	34.983307	19.268807	-0.010203	1.018359	-0.053932	-12.826752	37.623593	-12.193376	28.938596	45.000000	-6.914430	6.833331	-90.000000	38.405146	77.386496	-12.805461	32.346107	-16.537703	16.916003	-7.763162	-45.000000	3.272488	12.485617	19.802842	12.854235	-60.620684	-32.437929	66.526337	14.615620	9.766168	-20.896620	
2.1900	19.573925	35.066449	19.229943	-0.010237	1.018382	-0.054016	-12.845307	37.577812	-12.152542	28.891516	45.000000	-6.942211	6.861581	-90.000000	38.376944	77.352212	-12.863169	32.283748	-16.501903	16.902422	-7.847156	-45.000000	3.354320	12.543853	19.756120	12.967087	-60.581063	-32.596943	66.586689	14.535312	9.745652	-20.756728	
2.2000	19.557367	35.159845	19.192944	-0.010277	1.018414	-0.054089	-12.875186	37.520396	-12.119577	28.832023	45.000000	-6.977568	6.891862	-90.000000	38.346720	77.318258	-12.939194	32.206650	-16.452264	16.890351	-7.938586	-45.000000	3.440938	12.597748	19.706008	13.111663	-60.535169	-32.772094	66.662597	14.429075	9.726869	-20.582011	
2.2100	19.527459	35.260517	19.158545	-0.010316	1.018453	-0.054149	-12.914422	37.452995	-12.092828	28.761949	45.000000	-7.019199	6.922488	-90.000000	38.316161	77.284253	-13.030967	32.116133	-16.390319	16.880493	-8.035079	-45.000000	3.529778	12.644763	19.653838	13.279851	-60.480505	-32.955208	66.746861	14.301494	9.713561	-20.377602	
2.2200	19.490442	35.364911	19.134512	-0.010371	1.018502	-0.054221	-12.951228	37.384935	-12.058439	28.691450	45.000000	-7.061083	6.947863	-90.000000	38.290851	77.242706	-13.124877	32.019959	-16.325611	16.872950	-8.131599	-45.000000	3.616496	12.683668	19.602532	13.436748	-60.403886	-33.117861	66.813762	14.174649	9.714075	-20.170764	
2.2300	19.447218	35.469470	19.118775	-0.010429	1.018557	-0.054300	-12.986772	37.315126	-12.017589	28.619376	45.000000	-7.103745	6.969565	-90.000000	38.269212	77.197137	-13.223121	31.915670	-16.256579	16.869123	-8.223948	-45.000000	3.696405	12.709344	19.554626	13.580090	-60.301855	-33.250809	66.863134	14.047414	9.735813	-19.960228	
2.2400	19.397155	35.567711	19.124167	-0.010491	1.018594	-0.054395	-13.012330	37.252873	-11.965015	28.555667	45.000000	-7.141223	6.987123	-90.000000	38.251703	77.154633	-13.313710	31.814955	-16.191952	16.870277	-8.296574	-45.000000	3.755477	12.715183	19.518522	13.680627	-60.169221	-33.315377	66.883753	13.938480	9.787200	-19.778054	
2.2500	19.339583	35.658804	19.131329	-0.010563	1.018621	-0.054505	-13.038072	37.184606	-11.902278	28.486170	45.000000	-7.181824	7.008562	-90.000000	38.230309	77.123130	-13.419967	31.692955	-16.114584	16.880103	-8.349291	-45.000000	3.790267	12.688662	19.495511	13.758363	-59.985731	-33.307785	66.888260	13.822573	9.895019	-19.585107	
2.2600	19.274944	35.745307	19.141630	-0.010648	1.018640	-0.054630	-13.063679	37.112188	-11.832022	28.412749	45.000000	-7.224625	7.033587	-90.000000	38.205326	77.100184	-13.541105	31.552159	-16.025985	16.897236	-8.387364	-45.000000	3.806314	12.634966	19.482488	13.817384	-59.757912	-33.240941	66.878895	13.699684	10.051053	-19.382937	
2.2700	19.204847	35.837896	19.143607	-0.010750	1.018681	-0.054757	-13.099267	37.027058	-11.764513	28.326065	45.000000	-7.275263	7.065742	-90.000000	38.173221	77.080248	-13.694321	31.378022	-15.915718	16.920779	-8.429691	-45.000000	3.820092	12.559844	19.469456	13.891260	-59.491754	-33.157576	66.867850	13.547253	10.248820	-19.137046	
2.2800	19.132236	35.935999	19.155047	-0.010855	1.018719	-0.054886	-13.134577	36.944874	-11.702398	28.242370	45.000000	-7.324174	7.100629	-90.000000	38.138385	77.062593	-13.856903	31.199971	-15.802234	16.945925	-8.478859	-45.000000	3.838033	12.479960	19.453419	13.966480	-59.217540	-33.074483	66.852048	13.388551	10.453668	-18.889837	
2.2900	19.057658	36.044003	19.172973	-0.010973	1.018779	-0.055012	-13.172402	36.861929	-11.646161	28.157806	45.000000	-7.373559	7.137516	-90.000000	38.101552	77.043768	-14.045350	31.003252	-15.675314	16.976884	-8.540112	-45.000000	3.860625	12.381504	19.433140	14.049423	-58.917856	-32.986865	66.822712	13.208840	10.682973	-18.622751	
2.3000	18.984394	36.157365	19.208952	-0.011093	1.018827	-0.055141	-13.202921	36.790912	-11.593698	28.085627	45.000000	-7.415610	7.173314	-90.000000	38.065806	77.026185	-14.242719	30.813051	-15.548859	17.010346	-8.612391	-45.000000	3.889870	12.275386	19.408084	14.130288	-58.615548	-32.908869	66.784513	13.022959	10.909551	-18.368707	
2.3100	18.916250	36.279011	19.254709	-0.011227	1.018872	-0.055266	-13.229544	36.728663	-11.548039	28.022461	45.000000	-7.452235	7.212393	-89.999999	38.026792	77.021765	-14.508306	30.590480	-15.386582	17.061545	-8.698032	-45.000000	3.913740	12.109423	19.382793	14.236443	-58.261431	-32.828942	66.743595	12.769531	11.197016	-18.069220	
2.3200	18.853829	36.396450	19.307313	-0.011360	1.018866	-0.055394	-13.247230	36.678194	-11.501613	27.971674	45.000000	-7.481428	7.256647	-89.999999	37.982612	77.039961	-14.818409	30.359001	-15.203462	17.124584	-8.786768	-45.000000	3.929084	11.902449	19.360473	14.360005	-57.878097	-32.752362	66.716065	12.467709	11.517857	-17.750826	
2.3300	18.795342	36.511704	19.346623	-0.011520	1.018864	-0.055523	-13.265999	36.619598	-11.443776	27.912975	45.000000	-7.514981	7.304698	-89.999998	37.934649	77.067299	-15.191950	30.090178	-14.984974	17.203583	-8.882692	-45.000000	3.935607	11.641096	19.340365	14.511647	-57.430437	-32.664135	66.686217	12.099126	11.895540	-17.371941	
2.3400	18.737841	36.614689	19.378663	-0.011677	1.018836	-0.055665	-13.280110	36.556654	-11.366452	27.850513	45.000000	-7.550418	7.352551	-89.999996	37.886885	77.094609	-15.555789	29.835973	-14.776616	17.280302	-8.976137	-45.000000	3.941993	11.386968	19.320703	14.658633	-56.980039	-32.578410	66.655879	11.735213	12.248707	-17.004272	
